<svg viewBox="0 0 109 24" fill="currentColor" xmlns="http://www.w3.org/2000/svg">
	<path d="M5.99991 18C5.18391 18 4.43191 17.84 3.74391 17.52C3.07191 17.2 2.49591 16.752 2.01591 16.176C1.53591 15.6 1.15991 14.928 0.887906 14.16C0.631906 13.392 0.503906 12.56 0.503906 11.664C0.503906 10.72 0.647906 9.85598 0.935906 9.07198C1.22391 8.27198 1.62391 7.57598 2.13591 6.98398C2.66391 6.39198 3.28791 5.93598 4.00791 5.61598C4.72791 5.29598 5.51991 5.13598 6.38391 5.13598C7.27991 5.13598 8.07191 5.31998 8.75991 5.68798C9.46391 6.03998 10.0159 6.55998 10.4159 7.24798V5.37598H14.3759V16.848C14.3759 18.16 14.0559 19.304 13.4159 20.28C12.7759 21.256 11.8799 22.008 10.7279 22.536C9.57591 23.08 8.23191 23.352 6.69591 23.352C5.36791 23.352 4.19991 23.144 3.19191 22.728C2.19991 22.312 1.31991 21.712 0.551906 20.928L2.95191 18.432C3.41591 18.864 3.96791 19.224 4.60791 19.512C5.26391 19.816 5.95991 19.968 6.69591 19.968C7.25591 19.968 7.76791 19.864 8.23191 19.656C8.71191 19.448 9.09591 19.112 9.38391 18.648C9.67191 18.2 9.81591 17.6 9.81591 16.848V16.032C9.46391 16.688 8.93591 17.184 8.23191 17.52C7.54391 17.84 6.79991 18 5.99991 18ZM7.63191 14.4C7.85591 14.4 8.06391 14.376 8.25591 14.328C8.46391 14.264 8.65591 14.184 8.83191 14.088C9.00791 13.976 9.17591 13.84 9.33591 13.68C9.51191 13.504 9.67191 13.312 9.81591 13.104V10.848C9.67191 10.464 9.47191 10.136 9.21591 9.86398C8.95991 9.57598 8.67991 9.35998 8.37591 9.21598C8.07191 9.05598 7.75991 8.97598 7.43991 8.97598C7.11991 8.97598 6.81591 9.04798 6.52791 9.19198C6.25591 9.33598 6.01591 9.54398 5.80791 9.81598C5.59991 10.072 5.43991 10.368 5.32791 10.704C5.21591 11.04 5.15991 11.4 5.15991 11.784C5.15991 12.168 5.21591 12.52 5.32791 12.84C5.45591 13.16 5.63191 13.44 5.85591 13.68C6.07991 13.904 6.34391 14.08 6.64791 14.208C6.95191 14.336 7.27991 14.4 7.63191 14.4Z"/>
	<path d="M22.427 18.24C21.307 18.24 20.315 18.064 19.451 17.712C18.587 17.36 17.859 16.88 17.267 16.272C16.691 15.648 16.251 14.944 15.947 14.16C15.659 13.376 15.515 12.552 15.515 11.688C15.515 10.824 15.659 9.99998 15.947 9.21598C16.251 8.41598 16.691 7.71198 17.267 7.10398C17.859 6.49598 18.587 6.01598 19.451 5.66398C20.315 5.31198 21.307 5.13598 22.427 5.13598C23.563 5.13598 24.555 5.31198 25.403 5.66398C26.267 6.01598 26.987 6.49598 27.563 7.10398C28.155 7.71198 28.595 8.41598 28.883 9.21598C29.187 9.99998 29.339 10.824 29.339 11.688C29.339 12.552 29.187 13.376 28.883 14.16C28.595 14.944 28.155 15.648 27.563 16.272C26.987 16.88 26.267 17.36 25.403 17.712C24.555 18.064 23.563 18.24 22.427 18.24ZM20.195 11.688C20.195 12.248 20.291 12.736 20.483 13.152C20.675 13.552 20.939 13.864 21.275 14.088C21.611 14.296 21.995 14.4 22.427 14.4C22.859 14.4 23.243 14.296 23.579 14.088C23.915 13.864 24.179 13.552 24.371 13.152C24.563 12.736 24.659 12.248 24.659 11.688C24.659 11.128 24.563 10.648 24.371 10.248C24.179 9.83198 23.915 9.51998 23.579 9.31198C23.243 9.08798 22.859 8.97598 22.427 8.97598C21.995 8.97598 21.611 9.08798 21.275 9.31198C20.939 9.51998 20.675 9.83198 20.483 10.248C20.291 10.648 20.195 11.128 20.195 11.688Z"/>
	<path d="M29.7772 14.184C29.7772 13.336 30.0092 12.592 30.4732 11.952C30.9372 11.296 31.5772 10.784 32.3932 10.416C33.2252 10.048 34.1692 9.86398 35.2252 9.86398C35.7212 9.86398 36.1852 9.90398 36.6172 9.98398C37.0652 10.064 37.4492 10.184 37.7692 10.344V9.95998C37.7692 9.36798 37.5932 8.92798 37.2412 8.63998C36.9052 8.35198 36.3532 8.20798 35.5852 8.20798C34.8812 8.20798 34.2172 8.32798 33.5932 8.56798C32.9852 8.79198 32.3452 9.12798 31.6732 9.57598L30.3532 6.74398C31.2012 6.19998 32.0892 5.79998 33.0172 5.54398C33.9612 5.27198 34.9692 5.13598 36.0412 5.13598C38.0412 5.13598 39.5852 5.59198 40.6732 6.50398C41.7772 7.39998 42.3292 8.73598 42.3292 10.512V12.96C42.3292 13.392 42.3932 13.696 42.5212 13.872C42.6492 14.032 42.8732 14.128 43.1932 14.16V18C42.8252 18.08 42.4732 18.136 42.1372 18.168C41.8172 18.216 41.5292 18.24 41.2732 18.24C40.4572 18.24 39.8332 18.096 39.4012 17.808C38.9852 17.504 38.7132 17.064 38.5852 16.488L38.4892 16.032C37.9292 16.752 37.2812 17.304 36.5452 17.688C35.8092 18.056 35.0252 18.24 34.1932 18.24C33.3612 18.24 32.6092 18.064 31.9372 17.712C31.2652 17.36 30.7372 16.88 30.3532 16.272C29.9692 15.648 29.7772 14.952 29.7772 14.184ZM37.1692 14.496C37.3452 14.368 37.4892 14.232 37.6012 14.088C37.7132 13.928 37.7692 13.768 37.7692 13.608V12.672C37.5132 12.576 37.2172 12.496 36.8812 12.432C36.5612 12.368 36.2732 12.336 36.0172 12.336C35.4732 12.336 35.0092 12.472 34.6252 12.744C34.2572 13.016 34.0732 13.36 34.0732 13.776C34.0732 14 34.1372 14.208 34.2652 14.4C34.3932 14.576 34.5692 14.72 34.7932 14.832C35.0172 14.928 35.2732 14.976 35.5612 14.976C35.8332 14.976 36.1132 14.936 36.4012 14.856C36.7052 14.76 36.9612 14.64 37.1692 14.496Z"/>
	<path d="M44.2643 0.47998H48.8243V12.984C48.8243 13.448 48.9203 13.808 49.1123 14.064C49.3203 14.304 49.6163 14.424 50.0003 14.424C50.1923 14.424 50.4003 14.392 50.6243 14.328C50.8483 14.264 51.0563 14.176 51.2483 14.064L51.8243 17.424C51.2803 17.68 50.6643 17.88 49.9763 18.024C49.3043 18.168 48.6643 18.24 48.0563 18.24C46.8403 18.24 45.9043 17.928 45.2483 17.304C44.5923 16.664 44.2643 15.76 44.2643 14.592V0.47998Z"/>
	<path d="M62.0056 6.65998H57.5956V18H55.9756V6.65998H51.5656V5.21998H62.0056V6.65998Z"/>
	<path d="M63.4862 18V5.21998H68.9582C69.5222 5.21998 70.0382 5.33998 70.5062 5.57998C70.9742 5.80798 71.3822 6.11998 71.7302 6.51598C72.0782 6.89998 72.3482 7.33798 72.5402 7.82998C72.7322 8.30998 72.8282 8.80198 72.8282 9.30598C72.8282 9.89398 72.7142 10.452 72.4862 10.98C72.2702 11.508 71.9582 11.958 71.5502 12.33C71.1542 12.702 70.6862 12.96 70.1462 13.104L73.2422 18H71.4062L68.4902 13.41H65.1062V18H63.4862ZM65.1062 11.97H68.9762C69.4202 11.97 69.8042 11.85 70.1282 11.61C70.4642 11.358 70.7222 11.028 70.9022 10.62C71.0942 10.212 71.1902 9.77398 71.1902 9.30598C71.1902 8.82598 71.0822 8.38798 70.8662 7.99198C70.6502 7.58398 70.3682 7.25998 70.0202 7.01998C69.6722 6.77998 69.2882 6.65998 68.8682 6.65998H65.1062V11.97Z"/>
	<path d="M78.8443 5.21998H80.2123L85.4323 18H83.7043L82.1923 14.256H76.8283L75.3343 18H73.6063L78.8443 5.21998ZM81.8323 12.996L79.5283 7.09198L77.1523 12.996H81.8323Z"/>
	<path d="M85.4753 11.52C85.4753 10.74 85.6073 9.97798 85.8713 9.23398C86.1473 8.47798 86.5433 7.79398 87.0593 7.18198C87.5873 6.55798 88.2293 6.06598 88.9853 5.70598C89.7413 5.33398 90.5993 5.14798 91.5593 5.14798C92.6993 5.14798 93.6773 5.41198 94.4933 5.93998C95.3093 6.45598 95.9153 7.12198 96.3113 7.93798L95.0333 8.76598C94.7813 8.22598 94.4573 7.79998 94.0613 7.48798C93.6773 7.16398 93.2573 6.93598 92.8013 6.80398C92.3573 6.67198 91.9193 6.60598 91.4873 6.60598C90.7793 6.60598 90.1493 6.74998 89.5973 7.03798C89.0573 7.32598 88.6013 7.70998 88.2293 8.18998C87.8573 8.66998 87.5753 9.20998 87.3833 9.80998C87.2033 10.398 87.1133 10.992 87.1133 11.592C87.1133 12.252 87.2213 12.888 87.4373 13.5C87.6653 14.112 87.9773 14.652 88.3733 15.12C88.7693 15.588 89.2373 15.96 89.7773 16.236C90.3173 16.512 90.9053 16.65 91.5413 16.65C91.9853 16.65 92.4413 16.572 92.9093 16.416C93.3773 16.26 93.8153 16.02 94.2233 15.696C94.6313 15.36 94.9554 14.928 95.1954 14.4L96.5453 15.138C96.2813 15.774 95.8734 16.314 95.3214 16.758C94.7694 17.202 94.1513 17.538 93.4673 17.766C92.7953 17.994 92.1293 18.108 91.4693 18.108C90.5933 18.108 89.7893 17.922 89.0573 17.55C88.3253 17.166 87.6893 16.662 87.1493 16.038C86.6213 15.402 86.2073 14.694 85.9073 13.914C85.6193 13.122 85.4753 12.324 85.4753 11.52Z"/>
	<path d="M98.2129 18V5.23798H99.8329V12.294L106.421 5.21998H108.167L103.037 10.854L108.455 18H106.637L102.011 11.826L99.8329 14.094V18H98.2129Z"/>
</svg>
